<svg xmlns="http://www.w3.org/2000/svg" viewBox="0 0 791.5 791.5" xml:space="preserve" enable-background="new 0 0 512 512"><path fill="#0263d1" d="M202.6 0h265l224.1 233.8v454.7a103 103 0 0 1-103 103h-386a103 103 0 0 1-103-103V103A103 103 0 0 1 202.7 0z" data-original="#0263d1"/><g fill="#fff"><path fill-rule="evenodd" d="M467.2 0v232h224.5z" clip-rule="evenodd" opacity=".3" data-original="#ffffff"/><path d="M500 411.8H291.5c-9.6 0-17.5-7.8-17.5-17.4s7.9-17.3 17.5-17.3H500a17.3 17.3 0 1 1 0 34.7zm-69.5 208.7H291.4c-9.6 0-17.5-7.8-17.5-17.4s7.9-17.3 17.5-17.3h139.1a17.3 17.3 0 1 1 0 34.7zm69.6-69.6H291.4c-9.6 0-17.5-7.7-17.5-17.3s7.9-17.4 17.5-17.4H500a17.3 17.3 0 1 1 0 34.7zm0-69.5H291.4c-9.6 0-17.5-7.8-17.5-17.4s7.9-17.3 17.5-17.3H500a17.3 17.3 0 1 1 0 34.7z" data-original="#ffffff"/></g></svg>