<svg xmlns="http://www.w3.org/2000/svg" viewBox="0 0 791.5 791.5" xml:space="preserve" enable-background="new 0 0 512 512"><g fill-rule="evenodd" clip-rule="evenodd"><path fill="#00733b" d="M202.8 0h264.7l224.2 234v454.4c0 56.9-46.2 103-103 103H202.8c-56.9 0-103-46.1-103-103V103C99.7 46 145.8 0 202.7 0z" data-original="#00733b"/><g fill="#fff"><path d="M467.2 0v232h224.5z" opacity=".3" data-original="#ffffff"/><path d="M274 580.6h105.2v39.8H274zm138-203.4h105.4v39.4H412zm-138 0h105.2v39.4H274zM412 444h105.4v39.8H412zm-138 0h105.2v39.8H274zm138 69.6h105.4v39.8H412zm-138 0h105.2v39.8H274zm138 67h105.4v39.7H412z" data-original="#ffffff"/></g></g></svg>