<svg xmlns="http://www.w3.org/2000/svg" viewBox="0 0 791.5 791.5" xml:space="preserve" enable-background="new 0 0 512 512"><path fill="#ffb11f" fill-rule="evenodd" d="M202.7 0h264.7l224.3 233.8v454.7c0 56.7-46.2 103-103 103h-386a103 103 0 0 1-103-103V103c0-57 46-102.9 103-102.9z" clip-rule="evenodd" data-original="#ffb11f"/><g fill="#fff"><path fill-rule="evenodd" d="M467.1 0v231.9h224.6z" clip-rule="evenodd" opacity=".3" data-original="#ffffff"/><path d="M317.7 411.2v-54c0-5.9-4.6-10.5-10.4-10.5H278c-5.8 0-10.5 4.6-10.5 10.5v54l-16.3 47.7a43.5 43.5 0 0 0 41.4 57.9 43.8 43.8 0 0 0 41.4-58zm-6.8 75c-8.2 11.8-28.2 11.8-36.7 0a22.6 22.6 0 0 1-3-20.5l5.4-16h31.9l5.6 16a22.7 22.7 0 0 1-3.2 20.4zM228 56.6v29.7c0 5.8 4.7 10.4 10.5 10.4h39.7v44.3h-39.7c-5.8 0-10.4 4.6-10.4 10.5v22.8c0 5.9 4.6 10.8 10.4 10.8h39.7v44h-39.7c-5.8 0-10.4 4.6-10.4 10.5v23c0 5.9 4.6 10.5 10.4 10.5h39.7v33.6c0 5.8 4.9 10.5 10.7 10.5h58.1c5.6 0 10.5-4.7 10.5-10.5v-23.1c0-5.6-4.9-10.5-10.5-10.5H307v-44h40c5.5 0 10.4-4.6 10.4-10.5v-23c0-6-4.9-10.5-10.5-10.5H307v-44h40c5.5 0 10.4-5 10.4-10.8v-22.9c0-5.8-4.9-10.7-10.5-10.7H307V56.4l-79 .3z" fill="#ffb11f" data-original="#ffffff"/></g></svg>