<svg xmlns="http://www.w3.org/2000/svg" viewBox="0 0 791.5 791.5" xml:space="preserve" enable-background="new 0 0 512 512"><path fill="#e5252a" fill-rule="evenodd" d="M202.8 0h264.6l224.3 233.8v454.6c0 57-46.1 103-102.9 103h-386c-57 0-103-46-103-103V103c0-57 46-103 103-103z" clip-rule="evenodd" data-original="#e5252a"/><g fill="#fff"><path fill-rule="evenodd" d="M467.2 0v232h224.5z" clip-rule="evenodd" opacity=".3" data-original="#ffffff"/><path d="M214.3 590.5V446h61.5a51 51 0 0 1 36.4 12.6c9 8.3 13.6 19.6 13.6 33.6s-4.5 25.4-13.6 33.7a51 51 0 0 1-36.4 12.6h-24.5v52zm37-83.4h20.3c5.6 0 10-1.2 12.9-4 3-2.6 4.5-6.1 4.5-10.9s-1.5-8.3-4.5-10.8c-3-2.8-7.3-4-12.9-4h-20.3zm89.7 83.4V446h51.3c10 0 19.5 1.3 28.4 4.3 9 3 17 7.1 24.2 12.9 7 5.5 12.8 13 17 22.5 4 9.5 6.1 20.4 6.1 32.6 0 12.1-2.2 23-6.1 32.5-4.2 9.5-10 17-17 22.5a76.6 76.6 0 0 1-24.2 12.9c-8.9 3-18.3 4.3-28.4 4.3zm36.2-31.4H388a48 48 0 0 0 29.7-8.5c4.1-3 7.5-7.1 9.9-12.7s3.5-12 3.5-19.6c0-7.7-1.2-14.2-3.5-19.7s-5.8-9.7-10-12.7a48 48 0 0 0-29.6-8.5h-10.7zm109.4 31.4V446h102.8v31.4h-65.8v23.1h52.6v31.3h-52.6v58.7z" data-original="#ffffff"/></g></svg>