<svg xmlns="http://www.w3.org/2000/svg" viewBox="0 0 791.5 791.5" xml:space="preserve" enable-background="new 0 0 512 512"><path fill="#251d36" fill-rule="evenodd" d="M202.8 0h264.6l224.3 233.8v454.6c0 57-46.1 103-102.9 103h-386c-57 0-103-46-103-103V103c0-57 46-103 103-103z" clip-rule="evenodd" data-original="#251d36"/><g fill="#fff"><path fill-rule="evenodd" d="M467.2 0v232h224.5z" clip-rule="evenodd" opacity=".3" data-original="#ffffff"/><path d="M249.3 577.9V465.3H208v-31.2H327v31.2h-41V578zm211.4 0H422l-26.3-44.1-26.3 44h-38.7l45.6-76.7-39.9-67h38.6l20.7 34.8 20.6-34.8h38.8l-40 67.2zm44.7 0V465.3h-41v-31.2h119v31.2h-41.2V578z" data-original="#ffffff"/></g></svg>