<svg xmlns="http://www.w3.org/2000/svg" viewBox="0 0 791.5 791.5" xml:space="preserve" enable-background="new 0 0 512 512"><path fill="#fa0000" fill-rule="evenodd" d="M202.8 0h264.6l224.3 233.8v454.6c0 57-46.1 103-102.9 103h-386c-57 0-103-46-103-103V103c0-57 46-103 103-103z" clip-rule="evenodd" data-original="#fa0000"/><g fill="#fff"><path fill-rule="evenodd" d="M467.2 0v232h224.5z" clip-rule="evenodd" opacity=".3" data-original="#ffffff"/><path d="M395.8 359.1a127.9 127.9 0 1 0-.2 255.7 127.9 127.9 0 0 0 .2-255.7zm53.8 132a10.5 10.5 0 0 1-4.1 4.1l-73 36.6a9.2 9.2 0 0 1-12.3-4.2c-.8-1.2-1-2.5-1-4.1v-73a9 9 0 0 1 9.1-9 8 8 0 0 1 4.2.9l73 36.4a9.2 9.2 0 0 1 4.1 12.2z" data-original="#ffffff"/></g></svg>